<svg width="48" height="48" xmlns="http://www.w3.org/2000/svg"><g fill="#00AF00" fill-rule="evenodd"><circle cx="24" cy="24" r="24" opacity=".2"/><path d="M19.5 33.429v-1.5h-3v-15h3v1.5H21v-1.5h6v1.5h1.5v-1.5h3v4.5H33v-4.5c0-.413-.147-.766-.44-1.06a1.444 1.444 0 00-1.06-.44h-3v-1.5H27v1.5h-6v-1.5h-1.5v1.5h-3c-.413 0-.766.146-1.06.44-.293.294-.44.647-.44 1.06v15c0 .412.147.765.44 1.06.294.293.647.44 1.06.44h3zm8.25 1.5c1.659 0 3.075-.588 4.25-1.762 1.175-1.175 1.762-2.588 1.762-4.238 0-1.651-.587-3.064-1.762-4.239-1.175-1.174-2.591-1.761-4.25-1.761-1.659 0-3.071.587-4.238 1.761-1.167 1.175-1.75 2.588-1.75 4.239 0 1.65.583 3.063 1.75 4.238 1.167 1.174 2.58 1.762 4.238 1.762zm0-1.5c-1.246 0-2.31-.44-3.19-1.322-.881-.88-1.322-1.94-1.322-3.178 0-1.239.44-2.298 1.322-3.179.88-.881 1.944-1.321 3.19-1.321s2.306.444 3.179 1.333c.873.873 1.31 1.928 1.31 3.167 0 1.238-.437 2.297-1.31 3.178-.873.881-1.933 1.322-3.179 1.322zm1.202-2.239L30 30.12l-1.5-1.5v-2.69H27v3.31l1.952 1.951z"/></g></svg>