<svg width="48" height="48" xmlns="http://www.w3.org/2000/svg"><g fill="#FF7800" fill-rule="evenodd"><circle cx="24" cy="24" r="24" opacity=".2"/><path d="M24 34.429c2.746 0 5.1-.98 7.06-2.94 1.96-1.961 2.94-4.314 2.94-7.06 0-2.746-.98-5.1-2.94-7.06s-4.314-2.94-7.06-2.94c-2.746 0-5.103.984-7.071 2.952C14.976 19.333 14 21.683 14 24.429c0 2.746.98 5.099 2.94 7.06 1.96 1.96 4.314 2.94 7.06 2.94zm0-1.5c-2.35 0-4.357-.826-6.024-2.477-1.65-1.666-2.476-3.674-2.476-6.023 0-2.35.83-4.354 2.488-6.012 1.659-1.66 3.663-2.488 6.012-2.488 2.35 0 4.353.829 6.012 2.488 1.659 1.658 2.488 3.662 2.488 6.012 0 2.349-.83 4.353-2.488 6.011C28.353 32.1 26.349 32.93 24 32.93zm0-2.5c1.65 0 3.063-.588 4.238-1.762C29.413 27.492 30 26.079 30 24.429c0-1.651-.587-3.064-1.762-4.239-1.175-1.174-2.587-1.761-4.238-1.761-1.65 0-3.063.587-4.238 1.761C18.587 21.365 18 22.778 18 24.43c0 1.65.587 3.063 1.762 4.238 1.175 1.174 2.587 1.762 4.238 1.762zm0-1.5c-1.254 0-2.317-.437-3.19-1.31-.873-.873-1.31-1.936-1.31-3.19s.437-2.318 1.31-3.19c.873-.874 1.936-1.31 3.19-1.31s2.317.436 3.19 1.31c.873.872 1.31 1.936 1.31 3.19s-.437 2.317-1.31 3.19c-.873.873-1.936 1.31-3.19 1.31zm0-2.5c.556 0 1.028-.195 1.417-.584.389-.389.583-.86.583-1.416 0-.556-.194-1.028-.583-1.417A1.929 1.929 0 0024 22.429c-.556 0-1.028.194-1.417.583A1.929 1.929 0 0022 24.429c0 .555.19 1.031.571 1.428A1.99 1.99 0 0024 26.43z"/></g></svg>