<svg width="48" height="48" xmlns="http://www.w3.org/2000/svg"><g fill="#00AF00" fill-rule="evenodd"><circle cx="24" cy="24" r="24" opacity=".2"/><path d="M19 20.429c.857 0 1.571-.286 2.143-.858.571-.571.857-1.285.857-2.142 0-.842-.298-1.552-.893-2.131-.595-.58-1.297-.87-2.107-.87-.81 0-1.512.29-2.107.87-.595.579-.893 1.29-.893 2.13 0 .858.286 1.572.857 2.143.572.572 1.286.858 2.143.858zm10 0c.857 0 1.571-.286 2.143-.858.571-.571.857-1.285.857-2.142 0-.858-.286-1.572-.857-2.143-.572-.572-1.286-.857-2.143-.857-.857 0-1.571.285-2.143.857-.571.571-.857 1.285-.857 2.143 0 .857.286 1.571.857 2.142.572.572 1.286.858 2.143.858zm-10-1.5c-.397 0-.746-.151-1.048-.453-.301-.301-.452-.65-.452-1.047 0-.397.15-.746.452-1.048.302-.302.651-.452 1.048-.452s.746.15 1.048.452c.301.302.452.65.452 1.048 0 .396-.15.746-.452 1.047-.302.302-.651.453-1.048.453zm10 0c-.397 0-.746-.151-1.048-.453-.301-.301-.452-.65-.452-1.047 0-.397.15-.746.452-1.048.302-.302.651-.452 1.048-.452s.746.15 1.048.452c.301.302.452.65.452 1.048 0 .396-.15.746-.452 1.047-.302.302-.651.453-1.048.453zm-13.69 7.5c0-1.016.357-1.885 1.071-2.608.714-.722 1.587-1.083 2.619-1.083.111 0 .242.016.393.048.15.031.25.047.297.047.413-.54.747-.904 1-1.095a5.094 5.094 0 00-1.69-.31c-1.397 0-2.58.485-3.548 1.453-.968.968-1.452 2.15-1.452 3.548h1.31zm18.69 0c0-1.397-.484-2.58-1.452-3.548-.969-.968-2.151-1.452-3.548-1.452-.54 0-1.103.103-1.69.31.365.269.658.634.88 1.094.143-.063.413-.095.81-.095 1.016 0 1.885.357 2.607 1.072.722.714 1.083 1.587 1.083 2.619H34zm-10 2c.857 0 1.571-.286 2.143-.858.571-.571.857-1.285.857-2.142 0-.858-.286-1.572-.857-2.143-.572-.572-1.286-.857-2.143-.857-.857 0-1.571.285-2.143.857-.571.571-.857 1.285-.857 2.143 0 .857.286 1.571.857 2.142.572.572 1.286.858 2.143.858zm0-1.5c-.397 0-.746-.151-1.048-.453-.301-.301-.452-.65-.452-1.047 0-.397.15-.746.452-1.048.302-.302.651-.452 1.048-.452s.746.15 1.048.452c.301.302.452.65.452 1.048 0 .396-.15.746-.452 1.047-.302.302-.651.453-1.048.453zm-3.69 7.5c0-1.016.357-1.885 1.071-2.608.714-.722 1.587-1.083 2.619-1.083 1.016 0 1.885.357 2.607 1.072.722.714 1.083 1.587 1.083 2.619H29c0-1.397-.484-2.58-1.452-3.548-.969-.968-2.151-1.452-3.548-1.452-1.397 0-2.58.484-3.548 1.452S19 33.031 19 34.429h1.31z"/></g></svg>